<svg width="25" height="25" fill="none" xmlns="http://www.w3.org/2000/svg"><path d="M12.5 25c-1.693 0-3.312-.33-4.858-.989-1.547-.659-2.877-1.546-3.992-2.66-1.115-1.116-2.002-2.446-2.661-3.993A12.263 12.263 0 010 12.5c0-1.693.33-3.312.989-4.858.659-1.547 1.546-2.877 2.66-3.992C4.766 2.535 6.096 1.648 7.643.989A12.263 12.263 0 0112.5 0c1.693 0 3.312.33 4.858.989 1.547.659 2.877 1.546 3.992 2.66 1.115 1.116 2.002 2.446 2.661 3.993.66 1.546.989 3.165.989 4.858 0 1.693-.33 3.312-.989 4.858-.659 1.547-1.546 2.877-2.66 3.992-1.116 1.115-2.446 2.002-3.993 2.661-1.546.66-3.165.989-4.858.989zm6.25-17.188c0-.423-.15-.789-.452-1.098a1.49 1.49 0 00-1.11-.464H7.813c-.424 0-.79.155-1.1.464-.308.31-.463.675-.463 1.098v1.563h2.783c.944-1.042 2.1-1.563 3.467-1.563s2.523.521 3.467 1.563h2.783V7.812zM9.375 12.5c0 .863.305 1.6.915 2.21.61.61 1.347.915 2.21.915s1.6-.305 2.21-.915c.61-.61.915-1.347.915-2.21s-.305-1.6-.915-2.21a3.011 3.011 0 00-2.21-.915c-.863 0-1.6.305-2.21.915a3.011 3.011 0 00-.915 2.21zm9.375-1.563h-1.855a4.56 4.56 0 01.293 1.563c0 1.302-.456 2.409-1.368 3.32-.911.912-2.018 1.367-3.32 1.367s-2.409-.455-3.32-1.367c-.912-.911-1.367-2.018-1.367-3.32 0-.505.097-1.025.292-1.563H6.25v6.25c0 .44.15.81.452 1.111a1.51 1.51 0 001.11.452h9.375c.44 0 .81-.15 1.111-.452a1.51 1.51 0 00.452-1.11v-6.25z" fill="#331B7B"/></svg>